<svg width="313" height="424" viewBox="0 0 313 424" fill="none" xmlns="http://www.w3.org/2000/svg">
<path d="M296.793 77.0938L293.619 75.56L294.778 73.8346L297.398 76.1927L296.793 77.0938Z" fill="#686464" stroke="#3A3A3A" stroke-width="3"/>
<mask id="path-2-inside-1" fill="white">
<path d="M118.477 323.499L53.9071 394C49.5714 398.826 42.354 398.935 37.8682 394.246L12.4361 367.628C7.95108 362.934 8.51964 355.896 13.7005 351.986L88.2952 297.533L118.477 323.499"/>
</mask>
<path d="M118.477 323.499L53.9071 394C49.5714 398.826 42.354 398.935 37.8682 394.246L12.4361 367.628C7.95108 362.934 8.51964 355.896 13.7005 351.986L88.2952 297.533L118.477 323.499" fill="#582B17"/>
<path d="M53.9071 394L51.6947 391.974L51.685 391.984L51.6755 391.995L53.9071 394ZM37.8682 394.246L35.6992 396.318L35.7003 396.319L37.8682 394.246ZM12.4361 367.628L14.6051 365.555L14.6051 365.555L12.4361 367.628ZM13.7005 351.986L11.9317 349.563L11.9123 349.577L11.8931 349.591L13.7005 351.986ZM88.2952 297.533L90.2517 295.259L88.4481 293.707L86.5264 295.11L88.2952 297.533ZM116.265 321.472L51.6947 391.974L56.1194 396.026L120.69 325.525L116.265 321.472ZM51.6755 391.995C48.5082 395.52 43.3164 395.601 40.0361 392.172L35.7003 396.319C41.3917 402.269 50.6346 402.131 56.1387 396.005L51.6755 391.995ZM40.0373 392.173L14.6051 365.555L10.267 369.7L35.6992 396.318L40.0373 392.173ZM14.6051 365.555C11.3593 362.158 11.76 357.209 15.5079 354.38L11.8931 349.591C5.2793 354.583 4.54289 363.71 10.267 369.7L14.6051 365.555ZM15.4693 354.409L90.064 299.956L86.5264 295.11L11.9317 349.563L15.4693 354.409ZM86.3387 299.807L116.521 325.773L120.434 321.224L90.2517 295.259L86.3387 299.807Z" fill="#2F2011" mask="url(#path-2-inside-1)"/>
<path d="M141.44 299.678L132.258 293.509L297.42 47.6794L306.602 53.8486L141.44 299.678Z" fill="#686464" stroke="#3A3A3A" stroke-width="3"/>
<mask id="path-5-inside-2" fill="white">
<path d="M139.569 300.228L306.404 51.908L308.684 53.4399L141.849 301.76L139.569 300.228Z"/>
</mask>
<path d="M139.569 300.228L306.404 51.908L308.684 53.4399L141.849 301.76L139.569 300.228Z" fill="#AFAAA5"/>
<path d="M139.569 300.228L137.079 298.555L135.406 301.045L137.896 302.718L139.569 300.228ZM306.404 51.908L308.077 49.4178L305.587 47.7448L303.914 50.2349L306.404 51.908ZM308.684 53.4399L311.174 55.113L312.847 52.6228L310.357 50.9498L308.684 53.4399ZM141.849 301.76L140.176 304.25L142.666 305.923L144.339 303.433L141.849 301.76ZM142.059 301.901L308.894 53.581L303.914 50.2349L137.079 298.555L142.059 301.901ZM304.731 54.3982L307.011 55.9301L310.357 50.9498L308.077 49.4178L304.731 54.3982ZM306.194 51.7669L139.359 300.087L144.339 303.433L311.174 55.113L306.194 51.7669ZM143.522 299.269L141.242 297.737L137.896 302.718L140.176 304.25L143.522 299.269Z" fill="#3A3A3A" mask="url(#path-5-inside-2)"/>
<path d="M122.42 395.28C120.704 394.885 118.913 394.982 117.25 395.56C115.968 396.154 114.88 397.097 114.11 398.28C113.251 399.653 112.492 401.087 111.84 402.57C111.1 404.15 110.44 405.88 109.72 407.57C109.063 409.16 108.541 410.802 108.16 412.48C107.814 413.875 107.68 415.315 107.76 416.75C107.752 417.986 108.203 419.181 109.025 420.104C109.847 421.028 110.981 421.614 112.21 421.75C113.469 422.07 114.801 421.947 115.98 421.4C116.987 420.826 117.777 419.937 118.23 418.87C118.775 417.578 119.204 416.239 119.51 414.87C119.919 413.212 120.444 411.585 121.08 410C121.87 408.259 122.803 406.587 123.87 405C124.83 403.6 125.67 402.122 126.38 400.58C126.651 400.056 126.792 399.475 126.792 398.885C126.792 398.295 126.651 397.714 126.38 397.19C125.82 396.35 124.55 395.67 122.42 395.28Z" fill="#E1D6B9"/>
<path d="M127.65 400.44C127.151 401.919 126.501 403.344 125.71 404.69C124.71 406.45 123.64 408.33 122.78 410.3C121.92 412.27 121.41 414.16 120.87 415.92C120.436 417.504 119.808 419.029 119 420.46C118.318 421.672 117.301 422.662 116.07 423.31C114.722 423.949 113.202 424.132 111.74 423.83C110.265 423.635 108.905 422.927 107.9 421.83C107.032 420.738 106.497 419.418 106.36 418.03C106.201 416.362 106.265 414.681 106.55 413.03C106.908 411.062 107.454 409.133 108.18 407.27C108.97 405.27 109.74 403.4 110.58 401.7C111.306 400.128 112.172 398.625 113.17 397.21C113.504 396.735 113.897 396.305 114.34 395.93C115.21 395.18 117.53 395.79 116.51 396.37C115.49 396.95 115.29 397.64 114.61 398.6C113.819 399.923 113.15 401.316 112.61 402.76C111.97 404.22 110.84 405.6 110.18 407.15C109.567 408.563 109.094 410.034 108.77 411.54C108.456 412.849 108.332 414.196 108.4 415.54C108.442 416.624 108.812 417.67 109.46 418.54C110.245 419.408 111.304 419.979 112.46 420.16C113.549 420.457 114.71 420.332 115.71 419.81C116.51 419.32 116.61 417.94 116.99 416.88C117.489 415.687 117.926 414.468 118.3 413.23C118.706 411.934 119.299 410.704 120.06 409.58C121.047 408.033 122.14 406.556 123.33 405.16C124.429 403.897 125.329 402.474 126 400.94L126.14 400.47C126.278 400.109 126.352 399.727 126.36 399.34C126.36 398.93 128.01 398.78 127.67 399.89C127.717 399.974 127.741 400.069 127.741 400.165C127.741 400.261 127.717 400.356 127.67 400.44H127.65Z" fill="#394655"/>
<path d="M223.38 390.42C225.092 390.025 226.881 390.122 228.54 390.7C229.823 391.291 230.912 392.234 231.68 393.42C232.539 394.793 233.298 396.227 233.95 397.71C234.69 399.29 235.35 401.02 236.07 402.71C236.737 404.296 237.259 405.939 237.63 407.62C237.985 409.014 238.12 410.455 238.03 411.89C238.014 413.061 237.617 414.195 236.9 415.12C235.991 416.028 234.835 416.649 233.576 416.903C232.316 417.157 231.01 417.035 229.82 416.55C228.808 415.982 228.016 415.091 227.57 414.02C227.021 412.728 226.589 411.389 226.28 410.02C225.876 408.349 225.354 406.708 224.72 405.11C223.926 403.369 222.99 401.696 221.92 400.11C220.96 398.71 220.12 397.232 219.41 395.69C219.142 395.165 219.002 394.584 219.002 393.995C219.002 393.406 219.142 392.825 219.41 392.3C220 391.45 221.25 390.81 223.38 390.42Z" fill="#E1D6B9"/>
<path d="M218.08 395.59C218.579 397.069 219.229 398.494 220.02 399.84C221.094 401.657 222.072 403.53 222.95 405.45C223.75 407.45 224.32 409.31 224.86 411.07C225.282 412.654 225.9 414.179 226.7 415.61C227.378 416.822 228.392 417.811 229.62 418.46C230.981 419.115 232.52 419.305 234 419C235.461 418.77 236.807 418.068 237.83 417C238.698 415.908 239.233 414.588 239.37 413.2C239.538 411.533 239.477 409.851 239.19 408.2C238.823 406.234 238.277 404.306 237.56 402.44C236.76 400.44 235.99 398.57 235.15 396.87C234.425 395.298 233.558 393.795 232.56 392.38C232.227 391.908 231.837 391.478 231.4 391.1C230.53 390.35 228.21 390.96 229.22 391.54C230.23 392.12 230.44 392.81 231.12 393.77C231.915 395.091 232.585 396.484 233.12 397.93C233.76 399.39 234.89 400.77 235.56 402.32C236.143 403.743 236.612 405.212 236.96 406.71C237.274 408.019 237.398 409.366 237.33 410.71C237.297 411.796 236.926 412.844 236.27 413.71C235.485 414.577 234.426 415.149 233.27 415.33C232.177 415.635 231.01 415.517 230 415C229.21 414.51 229.11 413.13 228.72 412.07C228.221 410.877 227.784 409.658 227.41 408.42C227.004 407.126 226.415 405.897 225.66 404.77C224.67 403.223 223.574 401.746 222.38 400.35C221.315 399.078 220.448 397.652 219.81 396.12L219.66 395.65C219.526 395.284 219.452 394.899 219.44 394.51C219.44 394.11 217.8 393.96 218.14 395.07C218.11 395.252 218.11 395.438 218.14 395.62L218.08 395.59Z" fill="#394655"/>
<path d="M55.6099 288.37C56.0199 297.01 56.2999 305.57 56.7099 313.91C57.0448 322.12 57.8528 330.303 59.1299 338.42C60.3409 346.198 62.4725 353.805 65.4799 361.08C68.5972 368.487 72.9641 375.302 78.3899 381.23C85.5599 389.06 95.2999 395.33 106.82 400.06C119.443 404.966 132.731 407.949 146.24 408.91C161.541 410.102 176.931 409.431 192.07 406.91C208.423 404.245 224.365 399.483 239.5 392.74C244.317 390.52 248.8 387.639 252.82 384.18C257.19 380.472 261.207 376.368 264.82 371.92C268.311 367.651 271.386 363.056 274 358.2C276.265 354.139 277.894 349.755 278.83 345.2C280.192 337.675 280.815 330.036 280.69 322.39C280.557 315.651 280.053 308.924 279.18 302.24C278.42 295.75 277.66 289.32 277.31 282.61C276.894 275.515 277.148 268.397 278.07 261.35C278.9 255.3 279.8 249.46 280.63 243.63C281.46 237.8 282.28 231.9 282.83 225.77C283.435 219.392 283.712 212.987 283.66 206.58C283.593 199.325 283.109 192.08 282.21 184.88C281.515 179.28 280.456 173.732 279.04 168.27C277.576 162.429 275.613 156.724 273.17 151.22C270.812 145.728 267.79 140.546 264.17 135.79C260.689 131.18 256.437 127.208 251.6 124.05C245.778 120.267 239.73 116.844 233.49 113.8C227.893 111.067 222.071 108.818 216.09 107.08C210.157 105.422 204.08 104.337 197.94 103.84C191.183 103.323 184.394 103.396 177.65 104.06C167.29 104.94 157.01 105.9 147 107.16C137.219 108.335 127.515 110.085 117.94 112.4C108.905 114.6 100.135 117.769 91.7799 121.85C83.6621 125.865 76.2357 131.148 69.7799 137.5C65.2125 142.157 61.3455 147.452 58.2999 153.22C55.208 159.144 52.8217 165.41 51.1899 171.89C49.524 178.599 48.4565 185.442 47.9999 192.34C47.5692 199.338 47.6863 206.36 48.3499 213.34C48.8299 218.43 49.3499 223.34 49.7999 228.1C50.2499 232.86 50.7999 237.55 51.3199 242.1C51.8399 246.65 52.3199 251.1 52.7699 255.46C53.2199 259.82 53.6599 264.09 54.0799 268.23C54.2199 269.92 54.4199 271.7 54.5599 273.39C54.6999 275.08 54.8399 276.79 54.9699 278.49C55.0999 280.19 55.2499 281.81 55.3199 283.43C55.3899 285.05 55.4599 286.75 55.5999 288.3L55.6099 288.37Z" fill="#394655"/>
<path d="M60.44 320.26C60.8093 328.146 61.9175 335.981 63.75 343.66C65.5353 351.217 68.3446 358.494 72.1 365.29C75.9356 372.176 80.9364 378.344 86.88 383.52C93.5338 389.211 101.123 393.707 109.31 396.81C118.29 400.17 127.624 402.498 137.13 403.75C147.855 405.2 158.69 405.668 169.5 405.15C181.173 404.615 192.771 403.008 204.15 400.35C216.006 397.6 227.55 393.642 238.6 388.54C243.171 386.326 247.401 383.466 251.16 380.05C255.288 376.422 259.056 372.404 262.41 368.05C265.668 363.884 268.512 359.409 270.9 354.69C272.949 350.798 274.392 346.617 275.18 342.29C276.246 335.035 276.684 327.701 276.49 320.37C276.36 313.5 275.73 307.01 275.11 300.58C274.49 294.15 273.8 287.81 273.53 281.32C273.181 274.496 273.412 267.655 274.22 260.87C274.98 254.82 275.8 249.21 276.56 243.6C277.32 237.99 278.01 232.45 278.56 226.69C279.11 220.93 279.39 214.96 279.39 208.54C279.39 202.12 279.12 195.1 278.39 187.28C277.852 181.836 276.954 176.435 275.7 171.11C274.373 165.409 272.57 159.829 270.31 154.43C268.086 149.056 265.211 143.974 261.75 139.3C258.403 134.759 254.251 130.871 249.5 127.83C243.5 124.06 237.91 120.74 232.5 118.01C227.308 115.335 221.907 113.087 216.35 111.29C210.867 109.559 205.226 108.374 199.51 107.75C193.198 107.074 186.836 107.001 180.51 107.53C169.67 108.26 158.76 109.08 148.06 110.41C137.684 111.611 127.401 113.509 117.28 116.09C107.795 118.55 98.649 122.171 90.05 126.87C81.7169 131.506 74.3206 137.654 68.24 145C62.7189 151.931 58.6973 159.934 56.43 168.5C54.0865 177.371 52.791 186.487 52.57 195.66C52.3108 205.003 52.6114 214.353 53.47 223.66C54.23 232.81 55.19 241.6 56.09 249.57C56.23 251.19 56.43 252.82 56.57 254.37C56.71 255.92 56.85 257.54 56.99 259.09C57.13 260.64 57.26 262.19 57.4 263.74C57.54 265.29 57.61 266.74 57.75 268.32C58.09 272.97 58.37 277.47 58.64 281.97C58.91 286.47 59.13 290.76 59.26 295.04C59.39 299.32 59.61 303.53 59.82 307.73C60.03 311.93 60.23 316.15 60.44 320.28V320.26Z" fill="#96D6FF"/>
<g opacity="0.06">
<path opacity="0.06" d="M148.36 404.85C125.76 402.85 107.76 397.65 95.16 389.45C76.66 377.55 65.76 358.85 61.96 332.55C61.36 328.25 60.56 317.95 60.06 307.05C58.86 280.25 57.76 264.45 56.26 249.75C55.56 242.65 54.56 233.25 54.16 229.05C53.06 217.85 52.56 196.25 53.36 187.95C55.56 163.75 63.36 147.65 78.76 135.05C83.76 130.95 91.66 126.15 92.76 126.35C94.26 126.75 94.46 125.65 93.16 124.45C92.56 123.85 90.86 121.45 89.36 119.35C87.7144 116.895 85.9455 114.526 84.06 112.25C82.6596 110.716 81.626 108.883 81.037 106.891C80.448 104.899 80.3191 102.799 80.66 100.75C82.16 90.05 96.16 86.75 107.76 94.25C115.56 99.35 120.76 108.55 120.06 115.95C119.76 118.65 119.86 118.75 121.06 118.75C121.393 118.731 121.717 118.639 122.011 118.482C122.305 118.324 122.56 118.104 122.76 117.838C122.96 117.571 123.1 117.264 123.169 116.938C123.238 116.612 123.235 116.275 123.16 115.95C122.76 114.95 123.06 114.85 131.66 113.25C139.56 111.75 151.96 110.15 165.56 108.85C178.76 107.55 198.86 107.55 205.36 108.85C212.96 110.35 218.86 112.15 219.76 113.45C219.953 113.74 220.203 113.987 220.496 114.177C220.788 114.366 221.116 114.493 221.46 114.55C222.26 114.55 222.46 114.15 222.46 112.55C222.46 108.15 227.36 100.65 232.66 97.15C236.819 94.1907 241.758 92.5213 246.86 92.35C254.86 91.95 260.56 94.45 263.16 99.75C263.958 101.247 264.416 102.901 264.502 104.594C264.589 106.288 264.301 107.98 263.66 109.55C262.46 113.15 260.86 115.05 256.16 118.35C253.759 120.047 251.486 121.919 249.36 123.95C247.86 125.45 246.46 126.65 246.06 126.65C245.863 126.668 245.68 126.761 245.55 126.91C245.419 127.059 245.351 127.252 245.36 127.45C245.36 128.05 245.86 128.25 247.46 128.15C250.06 127.95 252.36 129.45 257.46 134.75C274.96 152.95 282.46 187.85 277.96 230.55C277.56 234.75 276.46 243.35 275.56 249.65C273.16 266.45 272.96 279.05 274.76 298.75C276.76 320.15 276.56 335.95 274.26 345.35C273.16 349.75 268.36 359.25 264.36 364.95C260.16 370.95 249.96 381.15 244.96 384.55C232.86 392.55 208.16 400.35 184.96 403.55C177.56 404.65 154.56 405.45 148.36 404.85ZM249.46 116.05C251.66 114.65 252.76 112.25 252.76 108.75C252.76 106.45 252.56 105.95 251.16 104.75C248.16 102.25 244.06 103.15 238.56 107.55C235.56 109.95 235.06 111.35 238.06 109.05C240.443 107.234 243.162 105.909 246.06 105.15C247.76 104.85 248.16 104.95 249.66 106.35C252.16 108.85 251.56 113.45 248.26 115.85C246.26 117.55 247.16 117.55 249.46 116.05ZM93.76 113.55C91.56 110.45 92.76 104.65 95.86 103.65C98.06 102.95 102.96 106.15 105.76 110.05C106.36 110.95 107.06 111.45 107.26 111.25C107.86 110.65 103.16 104.95 100.66 103.35C95.86 100.35 91.66 101.95 91.26 107.05C90.96 110.55 91.26 111.95 93.06 113.75C94.86 115.55 95.16 115.45 93.76 113.55Z" fill="#E7E7E7" stroke="#9D9D9D" stroke-width="0.5" stroke-linecap="round"/>
<path opacity="0.06" d="M248.06 92.55C240.96 92.55 238.06 93.45 232.46 97.25C227.06 100.95 221.46 109.95 222.46 113.45C222.86 114.85 220.76 114.85 219.76 113.45C219.491 113.112 219.149 112.839 218.76 112.65C239.76 129.85 264.96 170.95 259.86 198.65C248.66 258.85 269.56 338.95 232.56 364.35C167.56 409.05 136.66 392.15 102.06 382.35C85.7601 377.75 72.4601 361.85 65.5601 349.25C70.8601 366.55 81.0601 380.25 94.9601 389.25C107.46 397.25 124.76 402.45 146.16 404.45C154.26 405.25 175.96 404.65 184.86 403.45C208.26 400.25 232.96 392.45 245.06 384.35C250.46 380.75 259.96 371.15 264.36 364.95C268.36 359.25 273.16 349.75 274.26 345.35C276.56 335.95 276.76 320.15 274.76 298.75C272.86 278.35 273.06 266.65 275.76 247.55C276.76 240.15 277.96 231.05 278.36 227.35C279.26 218.75 279.26 197.15 278.36 188.65C275.96 164.85 268.76 146.45 257.46 134.75C252.36 129.45 250.06 127.95 247.46 128.15C245.86 128.25 245.36 128.15 245.36 127.45C245.347 127.35 245.356 127.249 245.385 127.153C245.414 127.057 245.464 126.968 245.53 126.892C245.596 126.817 245.678 126.756 245.769 126.714C245.86 126.673 245.96 126.651 246.06 126.65C246.46 126.65 247.96 125.45 249.36 123.95C251.237 122.071 253.279 120.365 255.46 118.85C260.36 115.35 261.26 114.55 262.76 111.65C266.36 104.45 263.96 97.35 256.66 93.75C254.46 92.75 253.36 92.55 248.06 92.55ZM247.16 103.55C247.896 103.472 248.641 103.547 249.346 103.771C250.052 103.994 250.703 104.362 251.26 104.85C252.66 106.05 252.86 106.55 252.86 108.85C252.86 112.35 251.76 114.75 249.56 116.15C247.16 117.65 246.36 117.65 248.26 116.15C251.56 113.75 252.16 109.15 249.66 106.65C248.26 105.25 247.86 105.05 246.06 105.45C243.146 106.166 240.419 107.495 238.06 109.35C235.46 111.35 235.46 110.45 238.06 108.25C241.26 105.15 244.46 103.65 247.16 103.55Z" fill="black" stroke="#9D9D9D" stroke-width="0.5" stroke-linecap="round"/>
<g opacity="0.06">
<path opacity="0.06" d="M65.2002 310.05C63.803 311.118 62.7326 312.555 62.1102 314.2C61.7456 315.567 61.7768 317.01 62.2002 318.36C62.6914 319.898 63.293 321.399 64.0002 322.85C64.7502 324.42 65.6602 326.04 66.5302 327.69C67.3385 329.206 68.2788 330.649 69.3402 332C70.1847 333.144 71.196 334.155 72.3402 335C73.2617 335.72 74.3824 336.139 75.5502 336.2C76.8297 336.08 78.0455 335.586 79.0452 334.778C80.0449 333.97 80.7841 332.886 81.1702 331.66C81.3822 330.521 81.2024 329.344 80.6602 328.32C80.0161 327.067 79.2596 325.876 78.4002 324.76C77.3752 323.381 76.4495 321.931 75.6302 320.42C74.8167 318.705 74.1477 316.926 73.6302 315.1C73.1901 313.461 72.5871 311.869 71.8302 310.35C71.5994 309.808 71.2434 309.329 70.7914 308.952C70.3394 308.575 69.8043 308.31 69.2302 308.18C68.1702 308.08 66.8602 308.66 65.2002 310.05Z" fill="black"/>
<path opacity="0.06" d="M72.49 309.28C73.2936 310.614 73.9636 312.024 74.49 313.49C75.2228 315.48 76.0606 317.429 77 319.33C78 321.21 79.09 322.86 80.1 324.39C81.0462 325.73 81.8253 327.181 82.42 328.71C82.9172 330.007 83.0317 331.42 82.75 332.78C82.375 334.229 81.5399 335.517 80.37 336.45C79.2597 337.439 77.8533 338.033 76.37 338.14C74.9766 338.109 73.6221 337.674 72.47 336.89C71.0695 335.954 69.8071 334.827 68.72 333.54C67.4377 332.007 66.3026 330.356 65.33 328.61C64.33 326.73 63.33 324.93 62.58 323.2C61.83 321.636 61.2274 320.006 60.78 318.33C60.6316 317.772 60.5511 317.198 60.54 316.62C60.54 315.47 62.47 314.07 62.27 315.23C62.1143 316.34 62.2065 317.47 62.54 318.54C63.0016 320.026 63.6009 321.466 64.33 322.84C65.1 324.34 65.91 325.92 66.78 327.45C67.5677 328.912 68.4635 330.312 69.46 331.64C70.2764 332.745 71.2423 333.731 72.33 334.57C73.2264 335.353 74.3867 335.767 75.5764 335.728C76.7662 335.689 77.8968 335.2 78.74 334.36C79.7295 333.618 80.4353 332.559 80.74 331.36C80.9182 330.269 80.7503 329.15 80.26 328.16C79.6354 326.95 78.9024 325.798 78.07 324.72C77.0836 323.403 76.1946 322.016 75.41 320.57C74.6027 318.914 73.9596 317.182 73.49 315.4C73.0692 313.835 72.4895 312.317 71.76 310.87L71.49 310.46C71.2989 310.124 71.052 309.823 70.76 309.57C70.44 309.31 71.38 307.94 72.02 308.91C72.2108 308.983 72.3748 309.112 72.49 309.28Z" fill="black"/>
</g>
</g>
<path d="M292.2 190.9C291.939 198.144 290.193 205.258 287.07 211.8C283.883 218.427 279.573 224.453 274.33 229.61C268.985 234.914 262.79 239.284 256 242.54C249.096 245.849 241.635 247.84 234 248.41C226.636 248.954 219.24 247.932 212.3 245.41C205.739 242.971 199.788 239.132 194.86 234.16C189.851 229.094 185.937 223.052 183.36 216.41C180.61 209.322 179.328 201.749 179.59 194.15C179.805 186.458 181.502 178.879 184.59 171.83C187.553 165.109 191.764 159.011 197 153.86C202.179 148.828 208.295 144.86 215 142.18C221.964 139.426 229.402 138.067 236.89 138.18C244.382 138.276 251.788 139.786 258.72 142.63C265.292 145.301 271.319 149.155 276.5 154C281.508 158.675 285.525 164.31 288.31 170.57C291.126 176.969 292.456 183.923 292.2 190.91V190.9Z" fill="#394655"/>
<path d="M288.37 189.23C288.34 196.112 286.911 202.917 284.17 209.23C281.364 215.673 277.448 221.572 272.6 226.66C267.668 231.905 261.848 236.238 255.41 239.46C248.863 242.769 241.726 244.747 234.41 245.28C227.375 245.791 220.312 244.799 213.69 242.37C207.45 239.995 201.783 236.329 197.06 231.61C192.28 226.816 188.536 221.091 186.06 214.79C183.437 208.163 182.175 201.075 182.35 193.95C182.536 186.803 184.116 179.761 187 173.22C192.509 160.71 202.696 150.854 215.38 145.76C221.876 143.177 228.799 141.837 235.79 141.81C242.752 141.74 249.668 142.953 256.19 145.39C262.33 147.648 268.009 151.002 272.95 155.29C277.714 159.459 281.568 164.565 284.27 170.29C287.022 176.245 288.435 182.73 288.41 189.29L288.37 189.23Z" fill="white"/>
<path d="M249.6 202.09C258 202.09 264.81 195.28 264.81 186.88C264.81 178.48 258 171.67 249.6 171.67C241.2 171.67 234.39 178.48 234.39 186.88C234.39 195.28 241.2 202.09 249.6 202.09Z" fill="#394455"/>
<path d="M242.86 187.38C246.991 187.38 250.34 184.031 250.34 179.9C250.34 175.769 246.991 172.42 242.86 172.42C238.729 172.42 235.38 175.769 235.38 179.9C235.38 184.031 238.729 187.38 242.86 187.38Z" fill="white"/>
<path d="M140.69 189.35C140.429 196.594 138.683 203.708 135.56 210.25C132.37 216.876 128.06 222.901 122.82 228.06C117.47 233.374 111.263 237.748 104.46 241C97.5583 244.317 90.0962 246.312 82.4599 246.88C75.096 247.419 67.7012 246.397 60.7599 243.88C54.1865 241.425 48.2279 237.565 43.2999 232.57C38.3141 227.489 34.403 221.456 31.7999 214.83C29.0405 207.743 27.7477 200.171 27.9999 192.57C28.2154 184.874 29.9131 177.293 32.9999 170.24C35.9864 163.529 40.2177 157.445 45.4699 152.31C50.6635 147.27 56.7961 143.298 63.5199 140.62C70.4864 137.879 77.9246 136.536 85.4099 136.67C92.9018 136.766 100.308 138.276 107.24 141.12C113.8 143.775 119.82 147.608 125 152.43C130.002 157.109 134.014 162.743 136.8 169C139.582 175.41 140.911 182.356 140.69 189.34V189.35Z" fill="#394655"/>
<path d="M136.86 187.68C136.83 194.562 135.401 201.367 132.66 207.68C129.855 214.126 125.939 220.029 121.09 225.12C116.158 230.365 110.338 234.698 103.9 237.92C97.3545 241.23 90.216 243.205 82.9 243.73C75.8657 244.249 68.8016 243.26 62.18 240.83C55.9485 238.43 50.2949 234.739 45.59 230C40.8098 225.206 37.0657 219.481 34.59 213.18C31.9917 206.538 30.731 199.449 30.8803 192.318C31.0296 185.188 32.586 178.157 35.46 171.63C40.9671 159.132 51.1515 149.288 63.83 144.21C70.3215 141.606 77.2458 140.249 84.24 140.21C91.2025 140.148 98.1171 141.365 104.64 143.8C110.781 146.069 116.46 149.434 121.4 153.73C126.161 157.902 130.014 163.007 132.72 168.73C135.472 174.685 136.885 181.17 136.86 187.73V187.68Z" fill="white"/>
<path d="M65.19 202.64C73.5902 202.64 80.4 195.83 80.4 187.43C80.4 179.03 73.5902 172.22 65.19 172.22C56.7897 172.22 49.98 179.03 49.98 187.43C49.98 195.83 56.7897 202.64 65.19 202.64Z" fill="#394455"/>
<path d="M58.45 187.93C62.5811 187.93 65.93 184.581 65.93 180.45C65.93 176.319 62.5811 172.97 58.45 172.97C54.3189 172.97 50.97 176.319 50.97 180.45C50.97 184.581 54.3189 187.93 58.45 187.93Z" fill="white"/>
<path d="M158.3 251L163.4 251.1L166.4 251C166.83 250.981 167.258 251.072 167.643 251.265C168.028 251.457 168.357 251.745 168.6 252.1C169.099 252.873 169.344 253.782 169.3 254.7V260.4L169.6 266.1C169.636 266.572 169.574 267.046 169.42 267.493C169.265 267.941 169.02 268.351 168.7 268.7C168.108 269.355 167.282 269.75 166.4 269.8L163.4 269.9L157.5 269.8C156.467 269.773 155.476 269.384 154.7 268.7C154.361 268.365 154.103 267.956 153.947 267.505C153.791 267.054 153.741 266.573 153.8 266.1L154.1 260.5L154.5 254.9C154.547 254.409 154.696 253.933 154.937 253.502C155.178 253.072 155.506 252.697 155.9 252.4C156.128 251.964 156.474 251.602 156.898 251.354C157.323 251.106 157.809 250.984 158.3 251Z" fill="#2E3436"/>
<path d="M159 252.68L163.1 252.78L165.1 252.68C165.453 252.658 165.805 252.729 166.121 252.887C166.438 253.045 166.706 253.284 166.9 253.58C167.295 254.215 167.535 254.935 167.6 255.68L167.7 260.28L168 264.88C168.046 265.26 168.008 265.646 167.887 266.009C167.766 266.372 167.565 266.704 167.3 266.98C166.791 267.492 166.119 267.81 165.4 267.88L163.4 267.98L158.7 267.88C157.878 267.877 157.089 267.554 156.5 266.98C156.209 266.719 155.985 266.392 155.846 266.027C155.707 265.662 155.657 265.268 155.7 264.88L155.8 260.28L156 255.68C156.059 254.88 156.416 254.13 157 253.58C157.244 253.289 157.551 253.057 157.897 252.901C158.243 252.745 158.62 252.67 159 252.68Z" fill="white"/>
<path d="M185 248.58C184.716 250.531 183.674 252.292 182.1 253.48C180.229 255.118 178.1 256.436 175.8 257.38C170.437 259.641 164.579 260.468 158.8 259.78C156.167 259.455 153.582 258.817 151.1 257.88C149.11 257.13 147.227 256.121 145.5 254.88C144.113 253.895 142.981 252.592 142.2 251.08C141.462 249.667 141.215 248.049 141.5 246.48C141.811 244.718 142.569 243.066 143.7 241.68C145.007 240.069 146.601 238.713 148.4 237.68C150.435 236.516 152.623 235.641 154.9 235.08C157.483 234.448 160.142 234.179 162.8 234.28C165.672 234.404 168.522 234.84 171.3 235.58C173.916 236.308 176.434 237.348 178.8 238.68C180.791 239.775 182.502 241.315 183.8 243.18C184.724 244.822 185.142 246.701 185 248.58Z" fill="#394655"/>
<path d="M178.9 248.18C178.573 249.746 177.728 251.155 176.5 252.18C175.034 253.507 173.34 254.557 171.5 255.28C169.433 256.194 167.243 256.801 165 257.08C162.748 257.412 160.461 257.446 158.2 257.18C156.144 256.942 154.127 256.438 152.2 255.68C150.624 255.056 149.143 254.214 147.8 253.18C146.719 252.374 145.859 251.308 145.3 250.08C144.764 248.924 144.623 247.624 144.9 246.38C145.205 245.004 145.859 243.73 146.8 242.68C147.847 241.443 149.099 240.394 150.5 239.58C152.097 238.675 153.814 238.002 155.6 237.58C157.63 237.104 159.72 236.935 161.8 237.08C164.003 237.186 166.185 237.555 168.3 238.18C170.301 238.717 172.218 239.524 174 240.58C175.538 241.45 176.869 242.644 177.9 244.08C178.344 244.656 178.662 245.318 178.834 246.024C179.006 246.73 179.029 247.465 178.9 248.18Z" fill="#E1D0CB"/>
<path d="M173.9 238.88C173.469 239.989 172.699 240.934 171.7 241.58C170.469 242.41 169.121 243.05 167.7 243.48C166.17 243.966 164.596 244.301 163 244.48C161.473 244.68 159.927 244.68 158.4 244.48C157.137 244.322 155.895 244.02 154.7 243.58C153.765 243.18 152.916 242.603 152.2 241.88C151.537 241.252 151.053 240.458 150.8 239.58C150.483 238.682 150.413 237.714 150.6 236.78C150.8 235.725 151.246 234.732 151.9 233.88C152.632 232.936 153.551 232.153 154.6 231.58C155.794 230.935 157.073 230.463 158.4 230.18C159.945 229.857 161.533 229.79 163.1 229.98C164.709 230.133 166.29 230.503 167.8 231.08C169.159 231.598 170.438 232.305 171.6 233.18C172.557 233.94 173.341 234.894 173.9 235.98C174.251 236.915 174.251 237.945 173.9 238.88Z" fill="#394655"/>
<path d="M253.32 295.36C254.717 296.421 255.785 297.857 256.4 299.5C256.773 300.866 256.745 302.31 256.32 303.66C255.817 305.201 255.198 306.702 254.47 308.15C253.73 309.73 252.82 311.34 251.95 312.99C251.158 314.517 250.231 315.969 249.18 317.33C248.335 318.474 247.324 319.485 246.18 320.33C245.27 321.069 244.142 321.488 242.97 321.52C241.692 321.4 240.478 320.906 239.479 320.101C238.479 319.295 237.739 318.213 237.35 316.99C237.139 315.849 237.315 314.67 237.85 313.64C238.498 312.391 239.258 311.202 240.12 310.09C241.143 308.709 242.068 307.259 242.89 305.75C243.7 304.034 244.369 302.255 244.89 300.43C245.329 298.787 245.932 297.192 246.69 295.67C246.922 295.129 247.278 294.65 247.73 294.273C248.182 293.896 248.716 293.631 249.29 293.5C250.32 293.43 251.66 294 253.32 295.36Z" fill="#E1D6B9"/>
<path d="M246 294.62C245.188 295.95 244.518 297.361 244 298.83C243.27 300.72 242.52 302.76 241.56 304.67C240.6 306.58 239.46 308.2 238.45 309.73C237.506 311.072 236.727 312.522 236.13 314.05C235.636 315.348 235.525 316.761 235.81 318.12C236.188 319.565 237.019 320.851 238.18 321.79C239.292 322.777 240.697 323.371 242.18 323.48C243.577 323.449 244.934 323.015 246.09 322.23C247.486 321.289 248.748 320.162 249.84 318.88C251.119 317.346 252.251 315.696 253.22 313.95C254.22 312.07 255.22 310.27 255.97 308.54C256.72 306.976 257.323 305.346 257.77 303.67C257.912 303.124 257.989 302.564 258 302C258 300.85 256.07 299.46 256.27 300.61C256.431 301.72 256.338 302.851 256 303.92C255.538 305.406 254.939 306.845 254.21 308.22C253.45 309.72 252.63 311.3 251.77 312.83C250.946 314.284 250.02 315.677 249 317C248.18 318.102 247.211 319.085 246.12 319.92C245.261 320.602 244.214 321.006 243.12 321.08C241.868 321.046 240.671 320.559 239.75 319.71C238.76 318.968 238.055 317.909 237.75 316.71C237.568 315.619 237.736 314.499 238.23 313.51C238.847 312.295 239.581 311.143 240.42 310.07C241.403 308.753 242.289 307.366 243.07 305.92C243.884 304.248 244.53 302.499 245 300.7C245.413 299.134 245.99 297.616 246.72 296.17L246.99 295.76C247.181 295.424 247.428 295.123 247.72 294.87C248.04 294.61 247.1 293.24 246.46 294.22C246.266 294.298 246.104 294.439 246 294.62Z" fill="#394655"/>
<path d="M162.246 168.723C196.852 168.723 228.119 163.935 250.683 156.236C261.972 152.385 271 147.832 277.176 142.85C283.365 137.858 286.5 132.599 286.5 127.316C286.5 122.034 283.365 116.775 277.176 111.783C271 106.801 261.972 102.249 250.683 98.3966C228.119 90.6978 196.852 85.9089 162.246 85.9089C127.639 85.9089 96.3718 90.6978 73.8083 98.3966C62.5191 102.249 53.4909 106.801 47.3151 111.783C41.1261 116.775 37.9907 122.034 37.9907 127.316C37.9907 132.599 41.1261 137.858 47.3151 142.85C53.4909 147.832 62.5191 152.385 73.8083 156.236C96.3718 163.935 127.639 168.723 162.246 168.723Z" fill="#768C27" stroke="#363E1E" stroke-width="3"/>
<path d="M162.246 85.9089C131.329 85.9089 103.08 89.7316 81.3196 96.0409C70.438 99.1961 61.2207 102.961 54.1156 107.153C47.3338 111.154 42.5927 115.475 40.0934 119.918C42.5927 124.36 47.3338 128.681 54.1156 132.683C61.2207 136.875 70.4381 140.64 81.3197 143.796C103.08 150.106 131.329 153.93 162.246 153.93C193.16 153.93 221.411 150.106 243.172 143.796C254.054 140.64 263.271 136.875 270.377 132.683C277.159 128.681 281.899 124.36 284.398 119.918C281.9 115.475 277.159 111.154 270.377 107.153C263.272 102.961 254.054 99.1961 243.172 96.041C221.411 89.7316 193.16 85.9089 162.246 85.9089Z" fill="#4D5B21" stroke="#363E1E" stroke-width="3"/>
<mask id="path-34-inside-3" fill="white">
<path d="M88.8813 50.302C87.73 49.4692 86.6319 48.7227 85.5636 48.0227L79.5156 54.7409L81.7118 45.6473C64.6526 35.9101 58.3391 42.9236 43.851 36.4675L40.5533 47.3427L35.3148 31.627C16.1787 18.4494 13.4284 -1.52588e-05 13.4284 -1.52588e-05C13.4284 -1.52588e-05 4.5205 37.0977 20.8267 55.7296C44.9923 83.3455 61.7596 65.0986 79.0213 84.3309C96.2796 103.567 95.7886 106.523 95.7886 106.523L104.667 103.072C104.667 103.072 112.065 67.0726 88.8813 50.302Z"/>
</mask>
<path d="M88.8813 50.302C87.73 49.4692 86.6319 48.7227 85.5636 48.0227L79.5156 54.7409L81.7118 45.6473C64.6526 35.9101 58.3391 42.9236 43.851 36.4675L40.5533 47.3427L35.3148 31.627C16.1787 18.4494 13.4284 -1.52588e-05 13.4284 -1.52588e-05C13.4284 -1.52588e-05 4.5205 37.0977 20.8267 55.7296C44.9923 83.3455 61.7596 65.0986 79.0213 84.3309C96.2796 103.567 95.7886 106.523 95.7886 106.523L104.667 103.072C104.667 103.072 112.065 67.0726 88.8813 50.302Z" fill="#9F521D"/>
<path d="M85.5636 48.0227L83.334 46.0155L85.0556 44.1031L87.2079 45.5135L85.5636 48.0227ZM79.5156 54.7409L81.7452 56.7481L76.5994 54.0366L79.5156 54.7409ZM81.7118 45.6473L83.199 43.0419L85.1574 44.1597L84.628 46.3516L81.7118 45.6473ZM43.851 36.4675L40.9801 35.5969L41.9667 32.3434L45.0721 33.7272L43.851 36.4675ZM40.5533 47.3427L43.4242 48.2132L40.6885 57.2351L37.7073 48.2913L40.5533 47.3427ZM35.3148 31.627L37.0163 29.1562L37.8433 29.7257L38.1608 30.6783L35.3148 31.627ZM13.4284 -1.52588e-05L10.5113 -0.700462L16.3956 -0.442345L13.4284 -1.52588e-05ZM20.8267 55.7296L23.0842 53.7538L23.0843 53.754L20.8267 55.7296ZM79.0213 84.3309L81.2539 82.3271L81.2542 82.3275L79.0213 84.3309ZM95.7886 106.523L96.8753 109.319L91.9661 111.227L92.8291 106.031L95.7886 106.523ZM104.667 103.072L107.605 103.676L107.276 105.277L105.753 105.868L104.667 103.072ZM87.123 52.7327C86.0166 51.9324 84.9575 51.2123 83.9194 50.532L87.2079 45.5135C88.3063 46.2332 89.4435 47.0061 90.6395 47.8712L87.123 52.7327ZM87.7932 50.0299L81.7452 56.7481L77.286 52.7337L83.334 46.0155L87.7932 50.0299ZM76.5994 54.0366L78.7957 44.943L84.628 46.3516L82.4317 55.4452L76.5994 54.0366ZM80.2247 48.2528C72.2249 43.6866 66.8817 43.0789 61.6703 42.8234C56.2672 42.5584 50.478 42.7049 42.6299 39.2077L45.0721 33.7272C51.7122 36.6861 56.3238 36.5539 61.9642 36.8306C67.7963 37.1166 74.1394 37.8708 83.199 43.0419L80.2247 48.2528ZM46.722 37.338L43.4242 48.2132L37.6824 46.4721L40.9801 35.5969L46.722 37.338ZM37.7073 48.2913L32.4687 32.5757L38.1608 30.6783L43.3994 46.394L37.7073 48.2913ZM33.6133 34.0978C23.5451 27.1646 17.7644 18.824 14.5037 12.1962C12.8748 8.8853 11.8725 5.99837 11.274 3.91805C10.9746 2.87719 10.7755 2.03593 10.6493 1.44157C10.5862 1.14429 10.5413 0.908501 10.5111 0.740074C10.496 0.655853 10.4845 0.58844 10.4764 0.538582C10.4723 0.513649 10.469 0.493103 10.4665 0.477028C10.4652 0.468987 10.4642 0.462074 10.4633 0.456284C10.4628 0.453392 10.4624 0.450775 10.4621 0.448448C10.4619 0.447289 10.4617 0.445755 10.4616 0.445168C10.4614 0.44371 10.4612 0.442314 13.4284 -1.52588e-05C16.3956 -0.442345 16.3954 -0.443596 16.3952 -0.444778C16.3952 -0.445076 16.395 -0.44619 16.3949 -0.446793C16.3947 -0.447998 16.3946 -0.448921 16.3945 -0.449577C16.3943 -0.450882 16.3943 -0.451088 16.3944 -0.450211C16.3947 -0.448448 16.3956 -0.442329 16.3973 -0.431953C16.4007 -0.411194 16.4071 -0.373398 16.4168 -0.319275C16.4362 -0.211014 16.469 -0.0375671 16.5185 0.195381C16.6175 0.66143 16.7828 1.36448 17.0402 2.25916C17.5554 4.0499 18.4367 6.59892 19.8874 9.54753C22.7858 15.4389 27.9484 22.9118 37.0163 29.1562L33.6133 34.0978ZM13.4284 -1.52588e-05C16.3455 0.700432 16.3456 0.699821 16.3457 0.699348C16.3457 0.699379 16.3458 0.699043 16.3458 0.699097C16.3457 0.699219 16.3456 0.69989 16.3453 0.701126C16.3447 0.70359 16.3436 0.708275 16.342 0.715164C16.3387 0.728935 16.3334 0.751495 16.3262 0.782631C16.3118 0.84491 16.2898 0.941475 16.2612 1.07065C16.2039 1.32902 16.1202 1.71764 16.0184 2.22299C15.8146 3.23406 15.5387 4.71035 15.2564 6.54417C14.6908 10.2175 14.1039 15.2962 14.0123 20.9266C13.8264 32.361 15.6996 45.316 23.0842 53.7538L18.5691 57.7053C9.6476 47.5113 7.82166 32.6015 8.0131 20.8291C8.11024 14.8561 8.73118 9.4958 9.32624 5.6311C9.62421 3.69588 9.91684 2.12834 10.1366 1.03785C10.2465 0.492424 10.3382 0.0658188 10.4035 -0.228325C10.4361 -0.37542 10.4621 -0.489433 10.4804 -0.56868C10.4895 -0.608299 10.4968 -0.639236 10.502 -0.66127C10.5046 -0.672287 10.5067 -0.681076 10.5082 -0.687622C10.509 -0.690887 10.5096 -0.693596 10.5102 -0.69574C10.5104 -0.696808 10.5107 -0.69799 10.5108 -0.698524C10.5111 -0.699562 10.5113 -0.700462 13.4284 -1.52588e-05ZM23.0843 53.754C28.8947 60.394 34.1525 64.1587 38.9676 66.4315C43.795 68.7101 48.3391 69.5691 52.9235 70.2023C62.0951 71.4692 71.7747 71.7658 81.2539 82.3271L76.7886 86.3348C69.0062 77.6638 61.6713 77.4676 52.1025 76.1459C47.3166 75.4848 42.059 74.5255 36.4065 71.8574C30.7417 69.1836 24.8414 64.8731 18.569 57.7052L23.0843 53.754ZM81.2542 82.3275C89.9247 91.9914 94.236 97.6738 96.3953 101.01C97.4737 102.676 98.0683 103.837 98.3933 104.677C98.5578 105.102 98.6708 105.489 98.7329 105.851C98.7644 106.035 98.7846 106.223 98.7891 106.414C98.7913 106.51 98.7896 106.609 98.7831 106.708C98.7799 106.758 98.7754 106.809 98.7696 106.86C98.7667 106.885 98.7635 106.911 98.7599 106.937C98.7581 106.949 98.7562 106.962 98.7542 106.975C98.7532 106.982 98.7517 106.991 98.7512 106.995C98.7496 107.004 98.748 107.014 95.7886 106.523C92.8291 106.031 92.8275 106.041 92.826 106.05C92.8255 106.054 92.824 106.063 92.823 106.07C92.821 106.082 92.8192 106.095 92.8175 106.107C92.814 106.132 92.8109 106.157 92.8081 106.181C92.8027 106.229 92.7987 106.275 92.7958 106.319C92.7901 106.406 92.7891 106.485 92.7907 106.555C92.794 106.693 92.8078 106.799 92.8191 106.865C92.8406 106.99 92.8572 106.996 92.798 106.843C92.6757 106.527 92.3144 105.747 91.3583 104.27C89.4485 101.32 85.3761 95.9062 76.7883 86.3344L81.2542 82.3275ZM94.7019 103.726L103.58 100.276L105.753 105.868L96.8753 109.319L94.7019 103.726ZM104.667 103.072C101.728 102.468 101.728 102.469 101.728 102.47C101.728 102.47 101.728 102.471 101.727 102.471C101.727 102.471 101.727 102.471 101.728 102.47C101.728 102.468 101.729 102.465 101.73 102.459C101.732 102.447 101.736 102.427 101.742 102.398C101.753 102.341 101.77 102.251 101.792 102.129C101.836 101.885 101.9 101.516 101.974 101.035C102.123 100.072 102.313 98.6623 102.473 96.9131C102.792 93.4072 102.983 88.5755 102.481 83.2583C101.469 72.5451 97.7035 60.3865 87.1229 52.7327L90.6396 47.8713C103.243 56.9881 107.37 71.2146 108.454 82.6939C109 88.4729 108.791 93.6893 108.448 97.4574C108.276 99.3452 108.069 100.879 107.904 101.95C107.821 102.486 107.749 102.907 107.696 103.199C107.669 103.345 107.648 103.459 107.632 103.539C107.625 103.579 107.618 103.611 107.614 103.633C107.611 103.645 107.61 103.654 107.608 103.661C107.607 103.665 107.607 103.668 107.606 103.67C107.606 103.672 107.606 103.673 107.606 103.674C107.605 103.675 107.605 103.676 104.667 103.072Z" fill="#512C09" mask="url(#path-34-inside-3)"/>
<mask id="path-36-inside-4" fill="white">
<path d="M100.848 104.559C100.178 89.1083 93.0783 74.1159 81.4865 65.0986C73.2256 58.6723 56.8266 57.2093 45.9779 54.2499C35.1259 51.2906 22.3066 41.424 15.897 21.7007C13.6576 14.8232 12.8215 8.80171 12.6756 3.76886C11.3551 11.2435 9.18872 28.4885 13.8666 42.96L23.7863 45.3753L15.3695 46.9047C16.7596 50.1029 18.5312 53.1053 20.827 55.7296C24.8446 60.3212 28.6566 63.6289 32.3026 66.0674L50.4136 59.18L41.7845 70.8016C55.6488 75.5458 67.2207 71.1799 79.0216 84.3309C96.2799 103.567 95.7889 106.523 95.7889 106.523L100.848 104.559Z"/>
</mask>
<path d="M100.848 104.559C100.178 89.1083 93.0783 74.1159 81.4865 65.0986C73.2256 58.6723 56.8266 57.2093 45.9779 54.2499C35.1259 51.2906 22.3066 41.424 15.897 21.7007C13.6576 14.8232 12.8215 8.80171 12.6756 3.76886C11.3551 11.2435 9.18872 28.4885 13.8666 42.96L23.7863 45.3753L15.3695 46.9047C16.7596 50.1029 18.5312 53.1053 20.827 55.7296C24.8446 60.3212 28.6566 63.6289 32.3026 66.0674L50.4136 59.18L41.7845 70.8016C55.6488 75.5458 67.2207 71.1799 79.0216 84.3309C96.2799 103.567 95.7889 106.523 95.7889 106.523L100.848 104.559Z" fill="#7D3C1A"/>
<path d="M81.4865 65.0986L79.6445 67.4665L79.6445 67.4665L81.4865 65.0986ZM45.9779 54.2499L46.7672 51.3556L46.7674 51.3557L45.9779 54.2499ZM15.897 21.7007L18.7496 20.7718L18.7501 20.7735L15.897 21.7007ZM12.6756 3.76886L9.7213 3.24698L15.6743 3.68188L12.6756 3.76886ZM13.8666 42.96L13.1569 45.8749L11.5277 45.4782L11.012 43.8827L13.8666 42.96ZM23.7863 45.3753L24.496 42.4604L24.3227 48.3269L23.7863 45.3753ZM15.3695 46.9047L12.6181 48.1006L11.1095 44.6297L14.8331 43.9531L15.3695 46.9047ZM20.827 55.7296L18.5692 57.7051L18.5691 57.7049L20.827 55.7296ZM32.3026 66.0674L33.369 68.8714L31.9218 69.4218L30.6349 68.5611L32.3026 66.0674ZM50.4136 59.18L49.3473 56.3759L58.9412 52.7274L52.8223 60.9684L50.4136 59.18ZM41.7845 70.8016L40.8132 73.6401L36.9276 72.3105L39.3758 69.0132L41.7845 70.8016ZM79.0216 84.3309L81.2544 82.3274L81.2545 82.3275L79.0216 84.3309ZM95.7889 106.523L96.8745 109.319L91.9668 111.224L92.8294 106.031L95.7889 106.523ZM97.8511 104.689C97.2143 90.0085 90.4598 75.8797 79.6445 67.4665L83.3286 62.7307C95.6969 72.352 103.142 88.2082 103.845 104.429L97.8511 104.689ZM79.6445 67.4665C76.0736 64.6886 70.4834 62.8285 64.0103 61.2932C60.8233 60.5372 57.5573 59.8878 54.3393 59.2288C51.153 58.5762 48.0056 57.9127 45.1884 57.1442L46.7674 51.3557C49.3745 52.0668 52.3453 52.6959 55.5431 53.3508C58.7093 53.9992 62.0935 54.6721 65.395 55.4551C71.8988 56.9977 78.6386 59.0823 83.3286 62.7307L79.6445 67.4665ZM45.1886 57.1442C33.2822 53.8974 19.7398 43.2323 13.0438 22.6279L18.7501 20.7735C24.8734 39.6157 36.9697 48.6838 46.7672 51.3556L45.1886 57.1442ZM13.0444 22.6295C10.7113 15.4643 9.83061 9.15807 9.67682 3.85583L15.6743 3.68188C15.8125 8.44535 16.6038 14.1821 18.7496 20.7718L13.0444 22.6295ZM15.6298 4.29074C14.3222 11.6929 12.2842 28.311 16.7211 42.0373L11.012 43.8827C6.09326 28.666 8.38807 10.7941 9.7213 3.24698L15.6298 4.29074ZM14.5763 40.0452L24.496 42.4604L23.0766 48.2901L13.1569 45.8749L14.5763 40.0452ZM24.3227 48.3269L15.9058 49.8564L14.8331 43.9531L23.2499 42.4236L24.3227 48.3269ZM18.1208 45.7089C19.4143 48.6848 21.0326 51.4084 23.0849 53.7543L18.5691 57.7049C16.0297 54.8023 14.1048 51.5211 12.6181 48.1006L18.1208 45.7089ZM23.0847 53.7541C26.9511 58.1728 30.5688 61.2987 33.9704 63.5737L30.6349 68.5611C26.7443 65.9591 22.7381 62.4695 18.5692 57.7051L23.0847 53.7541ZM31.2363 63.2633L49.3473 56.3759L51.48 61.984L33.369 68.8714L31.2363 63.2633ZM52.8223 60.9684L44.1931 72.5901L39.3758 69.0132L48.005 57.3915L52.8223 60.9684ZM42.7557 67.9632C45.9673 69.0622 49.0813 69.6465 52.2197 70.0983C55.2536 70.535 58.6077 70.879 61.7304 71.4652C68.305 72.6995 74.8077 75.143 81.2544 82.3274L76.7887 86.3345C71.4346 80.3678 66.2509 78.4187 60.6233 77.3622C57.6449 76.803 54.7689 76.5271 51.3649 76.0371C48.0655 75.5622 44.5338 74.9132 40.8132 73.6401L42.7557 67.9632ZM81.2545 82.3275C89.925 91.9914 94.2363 97.6738 96.3956 101.01C97.474 102.676 98.0686 103.837 98.3936 104.677C98.5581 105.102 98.6711 105.489 98.7332 105.851C98.7647 106.035 98.7849 106.223 98.7894 106.414C98.7916 106.51 98.7899 106.609 98.7834 106.708C98.7802 106.758 98.7757 106.809 98.7699 106.86C98.767 106.885 98.7638 106.911 98.7602 106.937C98.7584 106.949 98.7565 106.962 98.7545 106.975C98.7535 106.982 98.752 106.991 98.7515 106.995C98.7499 107.004 98.7483 107.014 95.7889 106.523C92.8294 106.031 92.8278 106.041 92.8263 106.05C92.8258 106.054 92.8243 106.063 92.8233 106.07C92.8213 106.082 92.8195 106.095 92.8178 106.107C92.8143 106.132 92.8112 106.157 92.8084 106.181C92.803 106.229 92.799 106.275 92.7961 106.319C92.7904 106.406 92.7894 106.485 92.791 106.555C92.7943 106.693 92.8081 106.799 92.8194 106.865C92.8409 106.99 92.8575 106.996 92.7983 106.843C92.676 106.527 92.3147 105.747 91.3586 104.27C89.4488 101.32 85.3764 95.9062 76.7886 86.3344L81.2545 82.3275ZM94.7032 103.726L99.7626 101.762L101.934 107.355L96.8745 109.319L94.7032 103.726Z" fill="#512C09" mask="url(#path-36-inside-4)"/>
<path d="M251.063 113.008C251.151 112.914 251.231 112.828 251.302 112.748L232.368 59.2563L232.367 59.2558C230.409 53.716 225.468 48.5186 218.903 44.6863C212.358 40.8662 204.358 38.5 196.512 38.5H128.491C120.646 38.5 112.645 40.8662 106.1 44.6863C99.534 48.5186 94.593 53.7161 92.6326 59.2562L92.6325 59.2563L73.6938 112.76C73.7634 112.84 73.8413 112.927 73.9281 113.021C74.4567 113.595 75.3121 114.442 76.5784 115.473C79.1101 117.532 83.2922 120.331 89.8019 123.149C102.825 128.785 125.175 134.5 162.256 134.5C199.337 134.5 221.812 128.785 234.959 123.147C241.531 120.328 245.776 117.527 248.355 115.465C249.645 114.433 250.52 113.585 251.063 113.008ZM73.2311 112.193C73.2306 112.193 73.231 112.193 73.2324 112.195L73.2311 112.193Z" fill="#5C7427" stroke="#363E1E" stroke-width="3"/>
<path d="M128.598 38.5C121.051 38.5 113.376 40.6723 106.994 44.1903C120.88 51.738 140.57 56.5 162.5 56.5C184.433 56.5 204.12 51.738 218.006 44.1902C211.624 40.6722 203.952 38.5 196.402 38.5H128.598Z" fill="#4D5B21" stroke="#363E1E" stroke-width="3"/>
<path d="M281 227C274.5 233.5 227 284 182.5 305.5C138 327 61.5002 334.667 59 335.5C56.5167 336.327 57.9357 342.711 58.979 347.405L59.0001 347.5C60.0002 352 63.0002 359 65.5001 358.5C68 358 129.5 353 182.5 331C235.5 309 263.5 273.5 279 258C282 255 282.5 246.5 282.5 242.5C282.5 238.964 284 224 281 227Z" fill="#9F521D" stroke="#2F2011" stroke-width="3"/>
<path d="M65 305.83C63.6058 306.902 62.5447 308.348 61.94 310C61.5721 311.366 61.5999 312.809 62.02 314.16C62.5235 315.701 63.1419 317.202 63.87 318.65C64.61 320.23 65.52 321.84 66.39 323.49C67.1789 325.02 68.1097 326.473 69.17 327.83C70.0118 328.977 71.0234 329.988 72.17 330.83C73.0876 331.566 74.2235 331.978 75.4 332C76.6877 331.944 77.9168 331.446 78.88 330.59C79.9164 329.83 80.6639 328.741 81 327.5C81.2111 326.359 81.0351 325.18 80.5 324.15C79.852 322.903 79.0958 321.715 78.24 320.6C77.2103 319.222 76.2812 317.772 75.46 316.26C74.6482 314.545 73.9792 312.765 73.46 310.94C73.0215 309.297 72.4185 307.702 71.66 306.18C71.43 305.639 71.0741 305.161 70.6218 304.785C70.1696 304.409 69.6341 304.147 69.06 304.02C68 303.86 66.66 304.4 65 305.83Z" fill="#E1D6B9"/>
<path d="M72.31 305.06C73.1215 306.39 73.7919 307.801 74.31 309.27C75.04 311.15 75.79 313.19 76.75 315.11C77.71 317.03 78.84 318.63 79.85 320.11C80.7976 321.449 81.5768 322.9 82.17 324.43C82.6669 325.731 82.7814 327.146 82.5 328.51C82.1198 329.951 81.2896 331.233 80.13 332.17C79.034 333.183 77.6201 333.784 76.13 333.87C74.7343 333.834 73.378 333.4 72.22 332.62C70.8188 331.681 69.5564 330.55 68.47 329.26C67.1877 327.727 66.0526 326.076 65.08 324.33C64.08 322.46 63.08 320.65 62.34 318.92C61.584 317.359 60.9812 315.728 60.54 314.05C60.3822 313.493 60.2982 312.918 60.29 312.34C60.29 311.2 62.23 309.8 62.03 310.95C61.8656 312.059 61.9545 313.19 62.29 314.26C62.7495 315.747 63.3488 317.186 64.08 318.56C64.85 320.06 65.67 321.64 66.53 323.18C67.3177 324.642 68.2135 326.042 69.21 327.37C70.0298 328.472 70.9991 329.455 72.09 330.29C72.9471 330.976 73.9946 331.381 75.09 331.45C76.3429 331.444 77.5456 330.957 78.45 330.09C79.4309 329.339 80.1344 328.284 80.45 327.09C80.633 326.003 80.4648 324.885 79.97 323.9C79.3454 322.69 78.6124 321.538 77.78 320.46C76.7958 319.14 75.9101 317.75 75.13 316.3C74.3194 314.644 73.673 312.912 73.2 311.13C72.7868 309.567 72.2103 308.052 71.48 306.61L71.21 306.19C71.0096 305.858 70.7601 305.558 70.47 305.3C70.16 305.04 71.1 303.68 71.73 304.65C71.967 304.711 72.1734 304.857 72.31 305.06Z" fill="#394655"/>
</svg>
